<?xml version="1.0" encoding="UTF-8"?>
<svg xmlns="http://www.w3.org/2000/svg" xmlns:xlink="http://www.w3.org/1999/xlink" width="375pt" height="374.999991pt" viewBox="0 0 375 374.999991" version="1.1">
<defs>
<clipPath id="clip1">
  <path d="M 80 186 L 140 186 L 140 304.878906 L 80 304.878906 Z M 80 186 "/>
</clipPath>
<clipPath id="clip2">
  <path d="M 234 186 L 295 186 L 295 304.878906 L 234 304.878906 Z M 234 186 "/>
</clipPath>
<clipPath id="clip3">
  <path d="M 266 204 L 312.960938 204 L 312.960938 295 L 266 295 Z M 266 204 "/>
</clipPath>
<clipPath id="clip4">
  <path d="M 80 70.128906 L 295 70.128906 L 295 212 L 80 212 Z M 80 70.128906 "/>
</clipPath>
<clipPath id="clip5">
  <path d="M 180 129.101562 L 196 129.101562 L 196 246 L 180 246 Z M 180 129.101562 "/>
</clipPath>
<clipPath id="clip6">
  <path d="M 224 169 L 239.398438 169 L 239.398438 206 L 224 206 Z M 224 169 "/>
</clipPath>
<clipPath id="clip7">
  <path d="M 135.898438 169 L 151 169 L 151 206 L 135.898438 206 Z M 135.898438 169 "/>
</clipPath>
</defs>
<g id="surface1">
<rect x="0" y="0" width="375" height="374.999991" style="fill:rgb(100%,100%,100%);fill-opacity:1;stroke:none;"/>
<rect x="0" y="0" width="375" height="374.999991" style="fill:rgb(100%,100%,100%);fill-opacity:1;stroke:none;"/>
<rect x="0" y="0" width="375" height="374.999991" style="fill:rgb(73.329163%,87.838745%,78.42865%);fill-opacity:1;stroke:none;"/>
<g clip-path="url(#clip1)" clip-rule="nonzero">
<path style=" stroke:none;fill-rule:nonzero;fill:rgb(0%,0%,0%);fill-opacity:1;" d="M 119.144531 304.734375 C 115.894531 304.734375 112.695312 303.859375 109.832031 302.152344 C 105.640625 299.648438 102.671875 295.667969 101.472656 290.933594 L 80.808594 209.40625 C 79.613281 204.667969 80.324219 199.746094 82.824219 195.546875 C 85.320312 191.351562 89.300781 188.375 94.027344 187.175781 L 96.367188 186.582031 C 106.128906 184.097656 116.089844 190.035156 118.566406 199.8125 L 139.222656 281.34375 C 140.421875 286.085938 139.707031 291.003906 137.210938 295.203125 C 134.710938 299.398438 130.734375 302.375 126.003906 303.574219 L 123.667969 304.171875 C 122.167969 304.546875 120.652344 304.734375 119.144531 304.734375 Z M 100.859375 192.839844 C 99.925781 192.839844 98.980469 192.953125 98.042969 193.191406 L 95.703125 193.789062 C 92.738281 194.542969 90.238281 196.40625 88.675781 199.042969 C 87.109375 201.675781 86.664062 204.761719 87.414062 207.730469 L 108.070312 289.261719 C 108.824219 292.234375 110.6875 294.734375 113.316406 296.296875 C 115.945312 297.867188 119.023438 298.3125 121.996094 297.5625 L 124.335938 296.964844 C 127.300781 296.210938 129.796875 294.347656 131.359375 291.714844 C 132.925781 289.082031 133.371094 285.992188 132.621094 283.023438 L 111.96875 201.492188 C 110.648438 196.304688 105.972656 192.839844 100.859375 192.839844 Z M 100.859375 192.839844 "/>
</g>
<path style=" stroke:none;fill-rule:nonzero;fill:rgb(0%,0%,0%);fill-opacity:1;" d="M 97.78125 294.816406 C 86.574219 294.816406 76.332031 287.230469 73.453125 275.859375 L 63.355469 236.023438 C 61.707031 229.515625 62.6875 222.757812 66.117188 216.984375 C 69.546875 211.21875 75.015625 207.132812 81.515625 205.480469 L 83.222656 205.046875 C 85.046875 204.585938 86.902344 205.691406 87.359375 207.511719 L 108.121094 289.464844 C 108.582031 291.285156 107.480469 293.140625 105.660156 293.605469 L 103.949219 294.042969 C 101.890625 294.566406 99.816406 294.816406 97.78125 294.816406 Z M 81.609375 212.570312 C 77.566406 213.984375 74.183594 216.75 71.96875 220.480469 C 69.46875 224.679688 68.757812 229.605469 69.957031 234.34375 L 80.046875 274.1875 C 82.390625 283.4375 91.421875 289.25 100.65625 287.765625 Z M 81.609375 212.570312 "/>
<g clip-path="url(#clip2)" clip-rule="nonzero">
<path style=" stroke:none;fill-rule:nonzero;fill:rgb(0%,0%,0%);fill-opacity:1;" d="M 255.488281 304.730469 C 254 304.730469 252.496094 304.546875 250.996094 304.164062 L 248.65625 303.570312 C 243.925781 302.371094 239.945312 299.394531 237.449219 295.199219 C 234.953125 291 234.238281 286.078125 235.4375 281.339844 L 256.09375 199.808594 C 257.292969 195.074219 260.265625 191.085938 264.457031 188.589844 C 268.648438 186.09375 273.5625 185.375 278.296875 186.582031 L 280.632812 187.175781 C 285.363281 188.375 289.34375 191.351562 291.839844 195.546875 C 294.335938 199.746094 295.050781 204.667969 293.851562 209.40625 L 273.195312 290.9375 C 271.101562 299.203125 263.648438 304.730469 255.488281 304.730469 Z M 273.785156 192.832031 C 271.75 192.832031 269.742188 193.382812 267.945312 194.453125 C 265.316406 196.019531 263.453125 198.519531 262.699219 201.488281 L 242.042969 283.019531 C 241.289062 285.988281 241.738281 289.078125 243.304688 291.710938 C 244.871094 294.34375 247.367188 296.207031 250.332031 296.960938 L 252.671875 297.558594 C 258.792969 299.113281 265.039062 295.390625 266.589844 289.257812 L 287.246094 207.726562 C 288 204.757812 287.550781 201.667969 285.984375 199.035156 C 284.417969 196.402344 281.925781 194.539062 278.957031 193.785156 L 276.621094 193.1875 C 275.683594 192.953125 274.730469 192.832031 273.785156 192.832031 Z M 273.785156 192.832031 "/>
</g>
<g clip-path="url(#clip3)" clip-rule="nonzero">
<path style=" stroke:none;fill-rule:nonzero;fill:rgb(0%,0%,0%);fill-opacity:1;" d="M 276.882812 294.816406 C 274.84375 294.816406 272.777344 294.566406 270.714844 294.042969 L 269.007812 293.605469 C 267.1875 293.140625 266.082031 291.285156 266.546875 289.464844 L 287.304688 207.519531 C 287.769531 205.695312 289.621094 204.589844 291.445312 205.054688 L 293.152344 205.484375 C 299.652344 207.136719 305.117188 211.21875 308.546875 216.992188 C 311.976562 222.757812 312.957031 229.519531 311.308594 236.027344 L 301.21875 275.871094 C 298.332031 287.230469 288.089844 294.816406 276.882812 294.816406 Z M 274 287.761719 C 283.230469 289.25 292.265625 283.433594 294.609375 274.183594 L 304.699219 234.339844 C 307.042969 225.089844 301.871094 215.667969 293.046875 212.566406 Z M 274 287.761719 "/>
</g>
<g clip-path="url(#clip4)" clip-rule="nonzero">
<path style=" stroke:none;fill-rule:nonzero;fill:rgb(0%,0%,0%);fill-opacity:1;" d="M 290.601562 211.765625 C 288.722656 211.765625 287.195312 210.238281 287.195312 208.355469 L 287.195312 177.082031 C 287.195312 150.371094 276.808594 125.257812 257.949219 106.371094 C 239.085938 87.484375 214.007812 77.085938 187.332031 77.085938 C 160.660156 77.085938 135.574219 87.484375 116.714844 106.371094 C 97.851562 125.257812 87.464844 150.371094 87.464844 177.082031 L 87.464844 208.355469 C 87.464844 210.238281 85.9375 211.765625 84.058594 211.765625 C 82.175781 211.765625 80.652344 210.238281 80.652344 208.355469 L 80.652344 177.082031 C 80.652344 148.546875 91.746094 121.722656 111.898438 101.546875 C 132.046875 81.375 158.835938 70.265625 187.332031 70.265625 C 215.828125 70.265625 242.621094 81.375 262.765625 101.550781 C 282.914062 121.726562 294.015625 148.550781 294.015625 177.085938 L 294.015625 208.359375 C 294.007812 210.238281 292.488281 211.765625 290.601562 211.765625 Z M 290.601562 211.765625 "/>
</g>
<path style=" stroke:none;fill-rule:nonzero;fill:rgb(0%,0%,0%);fill-opacity:1;" d="M 100.566406 192.328125 C 98.6875 192.328125 97.160156 190.800781 97.160156 188.917969 L 97.160156 176.183594 C 97.160156 126.394531 137.609375 85.894531 187.332031 85.894531 C 189.214844 85.894531 190.738281 87.421875 190.738281 89.304688 C 190.738281 91.1875 189.214844 92.714844 187.332031 92.714844 C 141.371094 92.714844 103.972656 130.160156 103.972656 176.183594 L 103.972656 188.917969 C 103.972656 190.800781 102.449219 192.328125 100.566406 192.328125 Z M 100.566406 192.328125 "/>
<path style=" stroke:none;fill-rule:nonzero;fill:rgb(0%,0%,0%);fill-opacity:1;" d="M 274.097656 192.328125 C 272.21875 192.328125 270.691406 190.800781 270.691406 188.917969 L 270.691406 176.183594 C 270.691406 130.15625 233.296875 92.714844 187.332031 92.714844 C 185.453125 92.714844 183.925781 91.1875 183.925781 89.304688 C 183.925781 87.421875 185.453125 85.894531 187.332031 85.894531 C 237.054688 85.894531 277.503906 126.394531 277.503906 176.183594 L 277.503906 188.917969 C 277.503906 190.800781 275.980469 192.328125 274.097656 192.328125 Z M 274.097656 192.328125 "/>
<g clip-path="url(#clip5)" clip-rule="nonzero">
<path style=" stroke:none;fill-rule:nonzero;fill:rgb(100%,100%,100%);fill-opacity:1;" d="M 187.609375 245.859375 C 183.4375 245.859375 180.070312 242.496094 180.070312 238.332031 L 180.070312 136.871094 C 180.070312 132.707031 183.4375 129.34375 187.609375 129.34375 C 191.777344 129.34375 195.144531 132.707031 195.144531 136.871094 L 195.144531 238.332031 C 195.144531 242.496094 191.777344 245.859375 187.609375 245.859375 Z M 187.609375 245.859375 "/>
</g>
<path style=" stroke:none;fill-rule:nonzero;fill:rgb(100%,100%,100%);fill-opacity:1;" d="M 209.734375 227.28125 C 205.566406 227.28125 202.199219 223.917969 202.199219 219.753906 L 202.199219 155.453125 C 202.199219 151.289062 205.566406 147.921875 209.734375 147.921875 C 213.902344 147.921875 217.269531 151.289062 217.269531 155.453125 L 217.269531 219.753906 C 217.269531 223.839844 213.902344 227.28125 209.734375 227.28125 Z M 209.734375 227.28125 "/>
<g clip-path="url(#clip6)" clip-rule="nonzero">
<path style=" stroke:none;fill-rule:nonzero;fill:rgb(100%,100%,100%);fill-opacity:1;" d="M 231.863281 205.980469 C 227.691406 205.980469 224.324219 202.617188 224.324219 198.453125 L 224.324219 176.753906 C 224.324219 172.589844 227.691406 169.226562 231.863281 169.226562 C 236.03125 169.226562 239.398438 172.589844 239.398438 176.753906 L 239.398438 198.535156 C 239.398438 202.617188 235.949219 205.980469 231.863281 205.980469 Z M 231.863281 205.980469 "/>
</g>
<path style=" stroke:none;fill-rule:nonzero;fill:rgb(100%,100%,100%);fill-opacity:1;" d="M 165.5625 227.28125 C 161.390625 227.28125 158.023438 223.917969 158.023438 219.753906 L 158.023438 155.453125 C 158.023438 151.289062 161.390625 147.921875 165.5625 147.921875 C 169.730469 147.921875 173.097656 151.289062 173.097656 155.453125 L 173.097656 219.753906 C 173.015625 223.839844 169.648438 227.28125 165.5625 227.28125 Z M 165.5625 227.28125 "/>
<g clip-path="url(#clip7)" clip-rule="nonzero">
<path style=" stroke:none;fill-rule:nonzero;fill:rgb(100%,100%,100%);fill-opacity:1;" d="M 143.433594 205.980469 C 139.265625 205.980469 135.898438 202.617188 135.898438 198.453125 L 135.898438 176.671875 C 135.898438 172.507812 139.265625 169.144531 143.433594 169.144531 C 147.601562 169.144531 150.96875 172.507812 150.96875 176.671875 L 150.96875 198.453125 C 150.96875 202.617188 147.523438 205.980469 143.433594 205.980469 Z M 143.433594 205.980469 "/>
</g>
</g>
</svg>
